<?xml version="1.0" standalone="no"?>
<!DOCTYPE svg PUBLIC "-//W3C//DTD SVG 20010904//EN"
 "http://www.w3.org/TR/2001/REC-SVG-20010904/DTD/svg10.dtd">
<svg version="1.0" xmlns="http://www.w3.org/2000/svg"
 width="1686.000000pt" height="882.000000pt" viewBox="0 0 1686.000000 882.000000"
 preserveAspectRatio="xMidYMid meet">

<g transform="translate(0.000000,882.000000) scale(0.100000,-0.100000)"
fill="#000000" stroke="none">
<path d="M4397 5669 c-20 -17 -37 -36 -37 -43 0 -6 -9 -19 -20 -29 -11 -9 -17
-22 -15 -29 3 -7 -6 -26 -19 -43 -21 -26 -30 -30 -86 -32 -49 -2 -69 -8 -95
-28 -19 -14 -38 -25 -43 -25 -5 0 -14 -11 -20 -25 -6 -13 -30 -36 -53 -50 -23
-15 -44 -35 -46 -46 -3 -10 -9 -19 -13 -19 -14 0 -52 -70 -47 -84 3 -7 0 -19
-6 -25 -7 -7 -12 -17 -12 -24 -2 -43 -19 -108 -31 -118 -8 -6 -11 -15 -8 -20
3 -5 -2 -9 -10 -9 -8 0 -23 -8 -33 -18 -15 -16 -105 -49 -153 -56 -48 -7 -59
-18 -68 -64 -11 -52 -9 -189 2 -240 4 -18 16 -37 26 -42 12 -6 17 -18 15 -31
-4 -22 -4 -22 96 -4 24 5 40 3 50 -6 18 -18 73 -20 58 -3 -11 13 6 14 26 2 15
-9 158 -3 174 7 11 6 13 4 8 -8 -5 -13 -1 -17 19 -17 21 0 25 4 19 18 -5 14
-4 15 6 5 14 -14 88 -18 90 -5 1 4 2 21 3 37 1 29 0 30 -49 32 -27 0 -55 -3
-61 -8 -6 -5 -14 -5 -18 -1 -4 4 -87 8 -184 8 -98 1 -187 2 -200 3 -30 1 -41
34 -44 131 -2 71 0 81 20 100 12 11 22 18 22 15 0 -4 7 1 16 9 8 9 22 16 30
16 8 0 14 4 14 10 0 5 16 7 36 4 27 -3 35 -1 31 9 -3 8 0 14 6 15 31 3 47 10
72 32 32 31 43 57 51 123 8 62 26 107 63 151 7 9 11 22 7 31 -3 9 3 19 14 25
11 6 20 8 20 5 0 -4 7 1 16 10 9 9 27 23 40 32 13 8 21 19 18 24 -3 5 0 9 7 9
6 0 22 12 35 26 14 14 29 22 36 18 7 -4 8 -3 4 5 -9 14 19 26 36 15 7 -5 15
-9 18 -10 52 -10 60 -17 57 -50 -1 -19 -6 -34 -10 -34 -4 0 -7 -22 -6 -50 3
-52 9 -60 28 -36 7 8 21 13 31 11 26 -5 35 11 10 18 -26 7 -25 21 2 46 18 17
20 24 10 45 -10 23 -8 24 25 31 25 4 38 2 44 -7 7 -11 9 -11 9 0 0 7 7 20 15
29 26 25 14 45 -29 49 -21 2 -40 5 -42 7 -9 9 21 75 48 103 15 17 25 33 22 37
-4 4 0 7 10 7 9 0 15 4 12 9 -3 4 7 8 22 7 15 -1 26 -5 24 -9 -2 -4 4 -19 13
-33 9 -13 13 -28 10 -33 -2 -5 1 -11 9 -14 8 -3 13 -14 12 -24 -2 -10 5 -34
15 -53 11 -19 19 -40 19 -45 0 -6 10 -25 23 -42 18 -25 26 -29 38 -19 8 6 13
20 12 31 -8 61 -17 85 -30 85 -8 0 -13 8 -12 18 4 28 -23 102 -38 102 -7 0
-13 10 -13 23 0 35 -34 57 -88 57 -38 0 -55 -6 -85 -31z"/>
<path d="M4658 5373 c7 -3 16 -2 19 1 4 3 -2 6 -13 5 -11 0 -14 -3 -6 -6z"/>
<path d="M4631 5301 c-8 -5 -16 -24 -19 -43 -4 -36 -4 -37 -2 -118 2 -76 2
-75 -20 -55 -14 12 -17 22 -11 34 14 26 1 67 -34 108 -32 37 -32 37 -59 20
-27 -18 -27 -37 0 -37 8 0 13 -4 9 -9 -3 -6 4 -15 15 -21 17 -9 19 -14 9 -26
-8 -10 -8 -14 0 -14 6 0 11 -12 11 -26 0 -14 -4 -23 -10 -19 -5 3 -10 -1 -10
-9 0 -9 5 -16 11 -16 6 0 9 -10 7 -22 -2 -13 0 -27 5 -33 4 -5 17 -22 28 -38
11 -15 24 -25 29 -22 5 3 14 0 22 -7 19 -18 362 -18 379 0 7 6 19 12 26 12 7
0 13 4 13 9 0 14 -59 21 -151 17 -47 -2 -91 -1 -98 3 -7 5 -31 5 -54 0 -26 -4
-44 -3 -48 3 -4 6 -12 8 -18 4 -6 -4 -18 2 -27 13 -10 11 -24 17 -33 13 -14
-5 -14 -4 1 11 9 9 21 17 27 17 6 0 11 6 11 14 0 8 9 35 20 60 10 25 15 48 11
51 -5 3 -12 -7 -15 -20 -4 -16 -11 -23 -18 -19 -9 6 -9 9 0 12 13 4 17 32 4
32 -15 0 -9 29 6 35 10 4 12 0 8 -10 -3 -9 -2 -13 4 -10 6 3 10 22 10 41 0 24
5 34 15 34 20 0 19 26 -1 34 -22 8 -36 7 -53 -3z"/>
<path d="M10637 5244 c-3 -3 -3 -13 0 -22 4 -10 2 -13 -5 -8 -8 5 -12 -1 -12
-17 0 -13 -3 -27 -7 -31 -4 -4 -6 -22 -5 -41 4 -38 -9 -50 -53 -47 -41 3 -66
-17 -59 -45 7 -27 17 -29 34 -8 18 21 33 19 27 -4 -3 -13 0 -18 7 -15 7 3 13
-2 13 -11 0 -8 -4 -15 -8 -15 -4 0 -6 -12 -5 -27 2 -15 -3 -33 -10 -41 -8 -7
-15 -23 -15 -35 -2 -35 -3 -41 -17 -65 -8 -13 -11 -26 -8 -29 3 -3 1 -13 -4
-23 -5 -9 -10 -34 -12 -54 -1 -20 -5 -36 -9 -36 -4 0 -9 -17 -11 -37 -8 -66
-23 -89 -70 -106 -10 -3 -18 -13 -18 -20 0 -8 -6 -20 -14 -26 -11 -10 -11 -17
0 -49 7 -20 17 -36 22 -35 14 3 33 -45 22 -52 -6 -4 -10 -17 -10 -30 0 -13 -4
-26 -9 -29 -5 -3 -7 -15 -4 -26 3 -11 9 -17 14 -14 5 3 9 -2 9 -10 0 -9 -7
-16 -15 -16 -8 0 -16 -6 -17 -12 -1 -15 -5 -31 -8 -38 -5 -12 -30 -167 -30
-189 0 -13 -11 -44 -25 -70 -27 -51 -43 -187 -21 -188 6 0 23 -3 38 -6 22 -5
33 1 54 26 14 18 23 27 20 20 -12 -22 16 -25 52 -7 50 26 66 41 49 47 -9 4 -9
6 0 6 6 1 15 -3 18 -9 4 -6 16 -3 31 7 14 9 42 19 62 23 21 3 36 11 35 18 -2
7 0 11 5 10 4 -1 16 3 27 9 11 6 29 9 40 7 11 -1 27 3 35 11 8 8 29 16 45 19
16 3 31 10 33 16 2 5 8 7 13 4 6 -3 21 1 34 10 13 9 35 16 49 16 13 0 31 7 40
15 8 8 21 15 30 15 8 0 18 5 21 10 3 6 15 10 26 10 11 0 22 6 25 14 3 8 13 12
25 9 10 -3 19 0 19 6 0 6 7 11 15 11 9 0 18 6 21 14 3 8 14 16 25 19 10 3 19
12 19 21 0 9 6 16 13 16 6 0 24 7 39 14 18 9 30 11 34 5 11 -19 12 -184 0
-198 -6 -8 -6 -12 -1 -9 7 4 10 -12 9 -45 -2 -55 11 -77 45 -77 15 0 21 6 21
21 0 13 4 18 13 13 9 -6 9 -4 1 7 -6 8 -10 24 -9 37 1 12 -3 22 -9 22 -6 0 -2
8 9 17 20 15 20 15 -2 10 -23 -5 -31 7 -13 18 7 4 8 27 4 61 -4 34 -2 60 5 68
19 22 10 66 -14 66 -19 1 -19 1 -2 15 13 9 20 31 23 67 3 29 6 72 8 96 4 43
-11 102 -26 102 -12 0 -10 38 2 42 16 5 18 89 3 95 -10 4 -11 9 -2 19 6 7 12
30 13 50 1 28 -3 38 -16 42 -20 5 -23 17 -8 27 6 4 7 11 4 17 -5 7 -1 9 9 5
20 -8 21 -3 5 24 -10 17 -10 23 0 26 17 6 15 30 -3 37 -18 7 -19 20 -2 38 16
16 23 93 7 83 -15 -9 -10 53 7 87 21 43 16 55 -22 60 -32 4 -36 1 -44 -27 -10
-33 -10 -520 0 -530 4 -3 2 -22 -4 -41 -8 -27 -14 -33 -29 -28 -11 3 -18 0
-18 -8 0 -10 -2 -10 -9 1 -11 17 -110 25 -128 10 -9 -9 -17 -8 -28 1 -11 9
-15 9 -15 1 0 -7 -5 -9 -12 -5 -26 16 -141 19 -146 4 -2 -6 -9 -7 -15 -3 -17
11 -126 13 -132 2 -4 -5 -11 -9 -16 -9 -6 0 -8 4 -5 9 4 5 -25 9 -68 8 -41 -1
-72 -5 -70 -9 2 -4 0 -10 -6 -13 -6 -4 -9 -1 -8 7 2 8 -8 14 -24 16 -17 2 -28
-1 -28 -9 0 -18 -37 18 -43 42 -3 10 -2 17 3 14 4 -2 19 6 33 19 15 14 28 19
30 13 2 -7 10 -7 23 -2 10 5 28 9 39 9 11 1 24 11 30 24 9 21 15 23 52 18 46
-6 107 19 99 40 -3 7 3 10 14 7 10 -3 21 0 24 6 4 6 14 11 22 11 8 0 27 11 42
25 15 14 37 25 49 25 13 0 23 6 23 14 0 8 7 22 16 31 34 33 25 175 -11 175 -7
0 -15 9 -18 20 -3 11 -12 20 -20 20 -8 0 -17 7 -21 15 -3 8 -10 15 -16 15 -6
0 -18 7 -26 15 -9 8 -25 15 -37 15 -13 0 -31 6 -42 13 -20 14 -49 19 -97 20
-16 0 -28 5 -28 12 0 7 -7 15 -15 18 -8 4 -12 15 -10 27 2 11 0 20 -5 20 -5 0
-7 7 -4 15 4 8 12 15 20 15 8 0 14 7 14 15 0 18 -16 20 -23 3 -4 -10 -6 -10
-6 0 -1 7 10 17 24 22 14 5 25 13 25 16 0 4 -3 4 -7 1 -3 -4 -12 2 -20 13 -14
20 -34 26 -46 14z m713 -230 c0 -8 -5 -12 -10 -9 -6 4 -8 11 -5 16 9 14 15 11
15 -7z m-582 -35 c33 -13 40 -11 45 9 4 13 5 11 6 -5 1 -21 19 -29 53 -24 4 0
9 -8 13 -18 3 -11 16 -22 29 -25 13 -3 26 -15 29 -27 3 -11 15 -23 27 -26 18
-5 21 -11 17 -43 -2 -20 -7 -42 -11 -49 -4 -6 -46 -29 -94 -52 -48 -22 -95
-45 -104 -50 -10 -5 -22 -9 -28 -9 -6 0 -29 -9 -53 -19 -23 -11 -60 -25 -82
-32 -22 -7 -45 -17 -51 -21 -19 -14 -46 3 -41 23 3 11 1 17 -4 13 -5 -3 -9 2
-9 11 0 9 6 15 12 13 13 -5 43 41 33 50 -3 3 -5 0 -5 -6 0 -7 -7 -12 -15 -12
-8 0 -15 -5 -15 -12 0 -6 -3 -8 -6 -5 -4 4 -2 13 4 20 7 8 8 18 4 22 -4 5 -1
5 6 1 7 -4 12 -1 12 8 0 8 6 17 13 20 9 5 9 7 -2 12 -11 5 -8 10 10 21 13 8
16 12 7 9 -14 -4 -17 0 -16 19 2 25 18 36 18 13 0 -9 3 -9 11 -1 8 8 8 17 0
31 -13 24 -14 32 -3 31 18 -3 32 2 32 11 0 5 -7 7 -16 3 -12 -4 -15 -2 -12 8
3 8 13 14 24 14 15 0 18 6 16 29 -2 16 4 36 14 47 15 16 26 19 63 13 25 -4 56
-11 69 -15z m-163 -39 c3 -5 -1 -10 -10 -10 -9 0 -13 5 -10 10 3 6 8 10 10 10
2 0 7 -4 10 -10z m745 -340 c0 -5 -8 -10 -17 -10 -15 0 -16 2 -3 10 19 12 20
12 20 0z m8 -81 c-3 -8 -7 -3 -11 10 -4 17 -3 21 5 13 5 -5 8 -16 6 -23z
m-868 -49 c0 -4 -7 -7 -15 -6 -23 3 -26 12 -5 13 11 1 20 -2 20 -7z m490 -55
c0 -8 -5 -14 -11 -12 -6 1 -14 -3 -16 -10 -6 -17 57 -8 68 9 7 10 9 10 9 1 0
-7 3 -12 8 -11 4 0 15 -2 25 -6 24 -11 70 2 64 17 -3 7 3 13 14 13 11 0 19 -6
19 -13 0 -7 7 -13 16 -13 8 0 13 4 9 9 -3 5 -1 12 4 15 5 4 12 -3 16 -14 4
-11 11 -18 16 -15 5 4 9 0 9 -7 0 -9 3 -9 10 2 6 10 10 11 10 3 0 -7 9 -13 20
-13 24 0 38 -26 34 -65 -1 -16 -3 -31 -3 -32 -3 -9 5 -18 13 -15 12 4 -21 -48
-45 -70 -10 -10 -24 -18 -31 -18 -7 0 -29 -15 -48 -33 -42 -40 -197 -116 -300
-148 -41 -12 -79 -26 -84 -31 -6 -4 -16 -8 -24 -8 -8 0 -28 -7 -45 -15 -62
-28 -182 -75 -194 -75 -7 0 -13 -4 -13 -10 0 -5 -11 -12 -24 -16 -27 -7 -44
-34 -21 -34 8 0 15 -4 15 -10 0 -14 -11 -12 -31 6 -17 15 -20 15 -45 -1 -34
-22 -50 -8 -45 41 2 28 0 34 -10 28 -7 -4 -2 7 11 25 13 19 26 51 30 72 7 35
5 39 -14 39 -19 1 -18 2 7 16 15 8 27 22 27 30 0 8 -4 12 -10 9 -5 -3 -10 -1
-10 4 0 6 5 11 10 11 6 0 10 9 10 20 0 11 -4 20 -10 20 -5 0 -10 7 -10 15 0 8
6 15 13 15 8 0 7 4 -3 10 -13 8 -13 11 -1 19 7 5 10 14 7 20 -4 6 0 14 8 17
18 7 22 34 5 34 -6 0 -9 6 -6 13 2 6 0 21 -5 31 -9 16 -7 18 10 14 14 -4 22 0
25 13 6 21 -3 25 -20 8 -7 -7 -13 -8 -17 0 -4 6 2 16 14 23 11 7 20 21 20 30
0 14 7 16 42 13 24 -3 48 1 56 8 11 8 16 9 19 1 3 -8 18 -9 51 -2 26 4 52 6
58 4 6 -2 17 0 25 4 8 6 16 4 21 -3 5 -8 13 -8 32 2 21 11 28 12 41 1 9 -7 15
-8 15 -2 0 6 16 10 35 9 19 -1 35 -6 35 -10 0 -5 10 -7 23 -5 12 2 21 9 19 16
-1 8 2 11 7 8 5 -4 12 -2 16 4 9 15 25 12 25 -5z m-470 -5 c0 -5 -4 -10 -10
-10 -5 0 -10 5 -10 10 0 6 5 10 10 10 6 0 10 -4 10 -10z m-113 -366 c-3 -3
-12 -4 -19 -1 -8 3 -5 6 6 6 11 1 17 -2 13 -5z m3 -69 c0 -8 -4 -15 -10 -15
-5 0 -10 7 -10 15 0 8 5 15 10 15 6 0 10 -7 10 -15z m430 -49 c0 -2 -7 -6 -15
-10 -8 -3 -15 -1 -15 4 0 6 7 10 15 10 8 0 15 -2 15 -4z m-376 -151 c-4 -8
-10 -12 -15 -9 -11 6 -2 24 11 24 5 0 7 -7 4 -15z"/>
<path d="M5633 5189 c-25 -9 -30 -25 -10 -32 8 -4 9 -8 2 -14 -6 -4 -12 -21
-12 -38 -2 -44 -10 -75 -26 -99 -10 -15 -12 -28 -5 -46 9 -26 5 -167 -6 -177
-11 -12 -6 -23 11 -23 15 0 15 -1 -1 -19 -9 -10 -18 -35 -20 -55 -2 -20 -6
-39 -8 -42 -3 -3 -2 -20 2 -37 5 -22 3 -37 -6 -45 -7 -7 -11 -19 -8 -27 4 -8
2 -21 -3 -28 -5 -6 -8 -22 -7 -34 0 -13 -1 -23 -5 -23 -3 0 -7 -24 -8 -53 -1
-28 -7 -80 -13 -113 -9 -44 -9 -68 -1 -82 6 -10 8 -22 5 -25 -8 -7 -7 -125 1
-137 5 -8 11 -8 20 0 9 8 15 8 20 0 3 -5 13 -10 21 -10 11 0 12 5 6 18 -4 9
-7 26 -6 37 11 87 12 125 3 125 -5 0 -9 7 -9 15 0 8 -5 15 -11 15 -6 0 -1 12
10 26 23 30 27 74 9 92 -10 10 -10 15 1 21 7 5 11 13 7 19 -3 6 -2 13 4 17 14
9 2 27 -13 19 -7 -3 -3 2 8 10 11 9 20 29 20 44 0 15 6 36 12 46 11 20 6 57
-10 67 -5 4 -5 14 1 26 7 12 7 25 1 34 -13 21 -11 33 5 20 11 -10 16 -8 21 8
3 12 4 25 1 30 -4 5 -1 11 5 13 9 3 9 9 0 25 -9 17 -8 25 4 36 12 13 12 15 -5
20 -26 7 -26 37 0 37 11 0 20 -4 20 -10 0 -5 9 -10 20 -10 11 0 20 -5 20 -11
0 -5 -5 -7 -11 -3 -6 3 -3 -6 7 -22 11 -15 18 -36 16 -46 -2 -9 6 -23 17 -30
12 -7 21 -20 21 -30 0 -9 5 -20 11 -24 6 -3 9 -15 6 -25 -3 -11 -1 -19 5 -19
6 0 8 -9 5 -21 -3 -12 0 -22 9 -26 8 -3 11 -9 8 -14 -3 -5 0 -9 5 -9 6 0 11 5
11 11 0 8 5 8 15 -1 19 -16 10 -30 -15 -23 -14 4 -20 0 -20 -11 0 -9 7 -16 15
-16 18 0 20 -16 3 -23 -8 -3 -5 -6 6 -6 15 -1 17 -6 11 -37 -5 -27 -2 -41 12
-57 10 -11 12 -17 4 -12 -10 5 -12 4 -7 -3 4 -7 17 -12 29 -12 45 0 50 12 49
110 -1 61 3 104 12 124 8 17 17 42 21 56 11 40 84 187 100 200 8 7 15 21 15
30 0 10 4 20 8 22 4 2 29 32 54 68 69 96 136 172 143 160 3 -5 3 -14 0 -20 -3
-5 0 -10 7 -10 9 0 9 -3 -2 -10 -12 -8 -12 -12 -2 -18 9 -6 11 -19 6 -43 -4
-19 -6 -47 -5 -64 2 -16 3 -38 2 -47 0 -10 -1 -24 -1 -30 0 -7 1 -35 4 -63 2
-27 4 -57 5 -66 0 -9 12 -29 26 -45 14 -16 23 -35 20 -42 -3 -8 -5 -23 -5 -33
0 -11 -4 -17 -10 -14 -12 7 6 -43 21 -62 7 -8 7 -18 0 -31 -7 -14 -6 -24 4
-39 8 -11 12 -30 10 -42 -3 -16 1 -21 16 -21 25 0 24 -11 -2 -39 l-21 -22 21
-6 c22 -6 29 -23 10 -23 -7 0 -8 -7 -4 -17 9 -20 9 -35 1 -76 -3 -19 0 -30 10
-34 8 -3 14 -14 14 -24 0 -11 7 -19 17 -19 16 0 16 -1 0 -12 -14 -11 -14 -19
-4 -55 11 -41 27 -58 27 -29 0 7 9 16 19 19 17 4 18 12 14 58 -2 30 -8 58 -13
63 -5 5 -6 15 -3 22 3 8 0 14 -7 14 -8 0 -11 9 -8 25 3 14 1 44 -4 68 -5 23
-11 56 -13 72 -8 71 -19 111 -34 123 -9 8 -11 11 -4 8 16 -8 22 15 10 39 -5
10 -10 38 -10 62 0 24 -3 43 -6 43 -4 0 -7 18 -7 39 -1 23 -9 47 -18 57 -12
12 -14 19 -6 24 8 5 8 19 1 51 -10 44 -13 134 -8 254 3 76 0 85 -28 85 -22 0
-125 -72 -125 -88 0 -4 -19 -27 -41 -52 -22 -25 -48 -58 -56 -75 -9 -16 -22
-35 -29 -43 -18 -17 -94 -148 -94 -160 0 -5 -7 -15 -15 -22 -8 -7 -15 -19 -15
-27 0 -8 -12 -30 -26 -48 -14 -19 -23 -38 -20 -44 3 -5 3 -18 -1 -29 -8 -20
-9 -20 -31 -4 -13 10 -24 29 -26 42 -5 35 -29 90 -39 90 -4 0 -5 5 -2 10 3 6
1 10 -4 10 -6 0 -11 9 -11 20 0 18 -59 139 -83 168 -14 17 -18 103 -6 118 6 8
4 14 -7 18 -16 6 -16 7 0 19 16 12 16 15 -1 54 -16 36 -21 40 -40 32z m697
-439 c0 -5 -4 -10 -10 -10 -5 0 -10 5 -10 10 0 6 5 10 10 10 6 0 10 -4 10 -10z
m-739 -203 c-10 -9 -11 -8 -5 6 3 10 9 15 12 12 3 -3 0 -11 -7 -18z m-38 -242
c-3 -9 -8 -14 -10 -11 -3 3 -2 9 2 15 9 16 15 13 8 -4z m847 -59 c0 -3 -4 -8
-10 -11 -5 -3 -10 -1 -10 4 0 6 5 11 10 11 6 0 10 -2 10 -4z m-840 -136 c0 -5
-4 -10 -10 -10 -5 0 -10 5 -10 10 0 6 5 10 10 10 6 0 10 -4 10 -10z"/>
<path d="M4019 5003 c-35 -41 -45 -69 -41 -108 4 -41 18 -58 40 -50 11 4 16
-7 13 -27 0 -5 8 -8 19 -8 46 0 93 95 74 152 -16 51 -77 75 -105 41z m55 -89
c3 -8 2 -12 -4 -9 -6 3 -10 10 -10 16 0 14 7 11 14 -7z"/>
<path d="M13868 4898 c-7 -7 -25 -19 -40 -27 -16 -8 -28 -18 -28 -23 0 -4 -6
-8 -13 -8 -8 0 -22 -9 -31 -19 -18 -20 -113 -55 -144 -54 -10 0 -42 -5 -72
-12 -46 -10 -58 -10 -68 2 -7 7 -18 11 -23 7 -6 -3 -62 -6 -124 -5 -67 1 -116
-2 -119 -8 -4 -6 -12 -8 -19 -5 -7 2 -30 -7 -51 -21 -20 -14 -39 -25 -42 -25
-3 0 -21 -16 -40 -36 -42 -42 -51 -63 -70 -159 -3 -16 -9 -39 -14 -50 -27 -63
-69 -188 -80 -235 -14 -61 -50 -124 -108 -187 -31 -34 -47 -42 -88 -48 -27 -4
-60 -12 -73 -17 -16 -6 -27 -5 -31 2 -3 6 -4 61 -2 123 3 61 5 129 5 151 1 32
3 36 12 22 7 -9 17 -16 23 -16 12 0 38 41 32 50 -11 15 -30 30 -39 30 -6 0
-11 6 -11 14 0 26 -50 76 -76 76 -13 0 -23 5 -21 11 1 6 -6 15 -15 20 -10 5
-26 13 -35 19 -158 87 -253 68 -289 -58 -9 -29 -13 -64 -10 -78 4 -13 3 -24
-2 -24 -4 0 -8 -69 -7 -152 0 -150 0 -153 25 -175 14 -13 21 -23 16 -23 -5 0
-3 -6 3 -14 6 -7 22 -11 36 -8 19 3 25 0 25 -13 0 -11 6 -15 18 -11 9 3 37 10
62 16 25 6 50 18 57 26 6 9 18 17 27 18 8 1 35 21 60 44 25 23 47 42 49 42 2
0 3 -26 2 -57 -1 -40 -5 -58 -16 -61 -7 -2 -28 -11 -46 -19 -17 -8 -37 -15
-45 -17 -16 -2 -260 -124 -305 -153 -18 -11 -30 -23 -26 -26 3 -4 -1 -7 -10
-7 -9 0 -17 -4 -17 -9 0 -4 -16 -23 -35 -42 -64 -62 -83 -105 -83 -191 0 -42
-3 -81 -6 -87 -4 -5 -2 -13 4 -16 8 -5 8 -11 0 -20 -8 -10 -7 -16 7 -24 12 -7
14 -10 4 -11 -11 0 -9 -5 5 -22 10 -12 13 -18 7 -14 -7 4 -13 2 -13 -3 0 -6 5
-11 10 -11 6 0 10 -7 10 -15 0 -8 4 -15 9 -15 4 0 12 -15 18 -32 7 -25 15 -32
30 -31 12 1 25 -7 33 -22 14 -26 40 -34 40 -12 0 8 4 7 11 -3 6 -8 12 -11 15
-5 2 6 28 9 57 7 130 -7 171 -6 174 4 2 6 14 9 27 7 13 -3 27 0 30 6 4 6 17
11 30 11 31 0 100 67 124 123 19 42 20 61 16 249 -3 112 -6 228 -7 258 -2 55
9 110 21 109 4 -1 9 -1 12 0 3 2 24 4 48 6 52 5 118 50 162 111 17 24 35 44
41 44 5 0 8 3 7 8 -1 4 5 18 14 32 15 22 64 164 73 210 2 10 8 26 13 36 17 31
61 166 68 208 4 22 19 51 33 66 27 28 136 74 152 64 5 -3 9 0 9 6 0 7 7 9 16
6 9 -4 22 -2 29 4 9 8 15 8 20 0 3 -6 11 -8 16 -5 5 4 15 3 22 -2 16 -10 177
-11 183 -1 3 4 14 8 25 8 12 0 17 -4 13 -11 -18 -30 140 30 185 70 13 11 29
21 35 21 6 0 23 10 38 23 14 12 36 30 47 39 12 10 21 27 21 38 0 23 -4 25 -22
8z m-1603 -439 c-8 -12 12 -11 37 2 15 8 19 8 14 0 -4 -6 0 -11 8 -11 9 0 16
5 16 10 0 6 8 5 19 -2 11 -7 17 -16 15 -20 -3 -4 4 -8 15 -8 12 0 21 -6 21
-14 0 -24 28 -27 33 -3 3 18 5 16 13 -13 8 -27 15 -35 34 -35 28 0 80 -46 80
-71 0 -9 -7 -25 -15 -34 -8 -9 -19 -41 -25 -71 -5 -30 -16 -65 -22 -79 -15
-29 -55 -75 -66 -75 -4 0 -18 -10 -32 -22 -13 -13 -38 -23 -54 -24 -17 -1 -48
-2 -69 -3 -20 0 -37 4 -37 9 0 6 -9 16 -21 23 -14 9 -19 20 -16 33 3 10 1 19
-4 19 -6 0 -6 7 0 19 6 10 8 21 5 24 -4 3 -6 61 -6 128 1 115 16 209 34 209 4
0 8 7 8 16 0 8 5 12 10 9 6 -4 8 -11 5 -16z m226 -587 c8 2 17 7 20 12 14 19
29 -7 25 -42 -3 -20 0 -39 5 -43 7 -4 7 -19 1 -45 -6 -21 -8 -59 -6 -84 3 -25
5 -116 5 -204 1 -197 -6 -217 -91 -242 -30 -9 -71 -18 -90 -20 -68 -6 -127 -7
-136 -2 -5 3 -18 2 -29 -2 -45 -16 -158 36 -147 68 2 7 -3 12 -12 12 -10 0
-16 8 -16 21 0 11 -5 29 -11 40 -14 27 -14 164 0 214 6 22 27 58 46 79 43 47
124 106 145 106 9 0 20 4 26 9 18 19 169 91 190 91 26 0 48 25 38 42 -6 11 -5
11 8 0 9 -7 22 -11 29 -10z"/>
<path d="M4787 4839 c-13 -48 21 -70 77 -49 17 6 27 6 32 -1 3 -6 12 -8 20 -5
8 3 14 1 14 -4 0 -5 11 -5 26 2 17 8 28 9 32 1 4 -5 16 -9 26 -7 11 1 27 -6
36 -16 26 -29 52 -29 62 2 12 35 -17 74 -41 55 -11 -9 -13 -9 -8 0 11 19 -7
24 -96 28 -45 2 -103 6 -128 10 -42 6 -47 4 -52 -16z"/>
<path d="M9226 4776 c-33 -13 -37 -24 -41 -123 -3 -52 0 -73 8 -73 8 0 9 -2 1
-8 -17 -11 -36 -51 -29 -62 4 -6 -1 -24 -9 -42 -9 -17 -16 -37 -16 -45 0 -7
-4 -13 -10 -13 -5 0 -10 -6 -10 -13 0 -7 -9 -31 -19 -52 -20 -42 -17 -70 6
-61 8 3 11 2 8 -3 -3 -5 -1 -12 5 -16 6 -4 10 5 10 20 0 14 3 24 8 22 4 -3 15
12 24 34 11 27 13 39 5 39 -7 1 1 8 16 16 18 10 26 21 23 30 -3 8 -1 14 5 14
6 0 8 9 4 19 -4 13 1 24 17 35 12 9 18 16 12 16 -5 0 -15 -5 -22 -12 -9 -9
-12 -7 -12 10 0 11 9 30 20 40 21 20 18 58 -4 45 -6 -4 -5 1 3 10 7 9 17 15
21 12 4 -2 2 13 -4 35 -5 22 -14 40 -19 40 -4 0 -5 5 -1 11 4 8 9 7 15 -2 12
-19 29 6 29 41 0 41 -11 50 -44 36z"/>
<path d="M6963 4647 c-24 -11 -32 -29 -10 -24 7 1 12 -9 12 -28 0 -17 5 -29
11 -28 19 4 23 -46 5 -57 -14 -8 -14 -9 2 -10 20 0 22 -11 5 -28 -9 -9 -9 -12
0 -12 7 0 12 -9 12 -20 0 -12 9 -24 22 -29 13 -5 17 -10 10 -14 -7 -5 -5 -27
8 -72 10 -36 17 -65 14 -65 -2 0 1 -12 8 -27 7 -16 13 -39 13 -53 -1 -26 -18
-30 -70 -17 -11 3 -28 6 -38 6 -22 1 -87 70 -87 93 0 9 -5 20 -10 23 -6 4 -8
11 -5 16 4 5 6 39 6 76 0 80 6 93 29 63 l18 -23 15 29 c17 33 7 74 -18 74 -9
0 -19 8 -22 18 -4 9 -11 22 -15 27 -36 43 -47 53 -73 66 -17 9 -43 13 -60 9
-16 -3 -52 -5 -80 -5 -47 0 -53 -3 -98 -50 -50 -52 -79 -97 -76 -118 1 -6 -3
-25 -9 -40 -15 -35 -8 -217 8 -227 7 -4 10 -10 8 -14 -5 -10 52 -77 62 -71 5
3 11 -4 15 -15 4 -11 15 -20 27 -20 15 0 19 -5 15 -20 -6 -22 12 -27 30 -9 8
8 13 7 18 -2 6 -8 4 -10 -5 -4 -8 5 -11 4 -6 -3 9 -16 67 -12 99 7 29 17 72
75 79 107 5 29 35 29 42 0 4 -15 11 -26 16 -26 6 0 10 -7 10 -16 0 -12 6 -15
24 -10 14 3 30 1 38 -6 16 -15 38 -21 38 -11 0 5 18 8 40 7 22 0 40 3 40 6 0
4 10 5 23 3 12 -2 34 0 49 6 24 9 26 13 18 41 -5 16 -6 30 -3 30 3 0 1 6 -4
13 -11 13 -22 57 -30 117 -12 89 -3 171 21 193 55 48 147 75 272 78 56 2 107
20 87 32 -60 33 -310 -10 -363 -63 -11 -11 -27 -20 -35 -20 -18 0 -20 -21 -2
-40 10 -12 9 -12 -5 -1 -9 7 -26 10 -37 6 -14 -4 -21 0 -26 15 -4 12 -4 24 -1
27 3 3 -1 21 -9 40 -8 18 -12 39 -9 46 7 20 -36 36 -63 24z m-209 -75 c8 5 17
4 21 -2 4 -6 11 -8 16 -5 5 4 9 0 9 -8 0 -8 9 -17 21 -20 18 -5 19 -8 8 -28
-11 -21 -23 -157 -21 -239 1 -43 -25 -135 -43 -154 -8 -7 -24 -12 -37 -11 -13
1 -35 3 -50 4 -17 1 -29 8 -33 21 -3 11 -11 20 -17 20 -15 0 -76 66 -92 100
-18 34 -14 197 4 230 8 14 13 28 13 31 -3 9 27 35 59 52 18 9 43 12 77 7 28
-3 57 -3 65 2z m236 -452 c0 -5 -2 -10 -4 -10 -3 0 -8 5 -11 10 -3 6 -1 10 4
10 6 0 11 -4 11 -10z"/>
<path d="M7490 4563 c-49 -14 -120 -66 -120 -87 0 -6 -9 -22 -19 -35 -15 -20
-17 -30 -9 -53 6 -15 14 -28 19 -28 5 0 9 -11 9 -24 0 -19 6 -25 29 -28 16 -2
37 -1 47 3 19 6 74 -15 74 -29 0 -4 11 -9 26 -10 14 -1 23 2 20 6 -3 5 1 9 9
9 8 0 15 -4 15 -8 0 -8 77 -21 140 -24 29 -1 44 -6 43 -13 -2 -7 4 -12 12 -12
22 0 19 -60 -5 -88 -17 -20 -61 -33 -125 -36 -11 -1 -26 -7 -33 -13 -9 -9 -19
-10 -32 -3 -10 6 -37 10 -59 10 -25 0 -41 5 -41 12 0 6 -6 3 -14 -7 -16 -22
-10 -55 10 -55 8 0 14 -5 14 -11 0 -6 6 -9 12 -7 7 3 31 -1 53 -7 24 -8 49 -9
63 -4 12 5 22 5 22 1 0 -4 4 -1 9 7 5 7 28 14 52 15 71 3 125 55 134 131 1 10
-3 41 -9 69 -10 45 -14 50 -51 63 -57 20 -98 24 -107 10 -5 -8 -8 -7 -8 5 0
12 -8 17 -27 17 -43 -2 -121 9 -135 17 -6 4 -21 9 -32 10 -12 1 -30 5 -41 7
-11 3 -26 6 -32 6 -19 1 -16 44 5 61 58 50 79 59 111 50 17 -5 31 -6 31 -3 0
3 6 0 14 -6 11 -9 18 -8 30 4 14 14 16 15 16 1 0 -12 9 -14 41 -11 42 4 86
-14 71 -30 -4 -5 -1 -5 6 -1 17 10 15 51 -4 70 -15 15 -29 20 -48 17 -4 -1
-14 3 -21 9 -7 6 -20 7 -30 4 -9 -4 -20 -2 -24 3 -9 15 -59 25 -66 13 -4 -7
-11 -7 -18 -2 -7 5 -19 7 -27 5z"/>
<path d="M8849 4490 l-55 -59 1 -73 c1 -45 -3 -83 -12 -100 -7 -15 -14 -38
-15 -52 -1 -13 -5 -23 -9 -20 -4 2 -12 -11 -19 -30 -6 -19 -17 -39 -25 -46
-19 -16 -61 -2 -89 29 -13 14 -40 44 -60 66 -20 21 -36 43 -36 48 0 4 -11 20
-25 34 -13 15 -29 40 -36 55 -6 15 -15 28 -20 28 -12 0 -7 61 8 89 13 26 18
71 7 71 -14 0 -64 -42 -59 -50 3 -5 -2 -15 -10 -23 -11 -12 -12 -17 -2 -20 7
-3 5 -6 -5 -6 -12 -1 -15 -7 -12 -23 3 -13 7 -36 9 -52 3 -16 9 -32 13 -35 5
-3 12 -16 16 -28 4 -12 20 -35 37 -50 16 -15 29 -35 29 -44 0 -9 9 -19 20 -22
14 -4 18 -10 13 -23 -4 -11 -3 -15 5 -10 6 3 13 2 17 -3 3 -6 12 -8 19 -5 10
4 12 -2 9 -20 -3 -16 -1 -26 6 -26 7 0 10 -4 7 -9 -4 -5 5 -8 19 -6 14 1 41
-3 60 -9 36 -13 56 -26 38 -26 -6 0 -13 -12 -16 -27 -3 -16 -15 -38 -26 -50
-12 -12 -21 -26 -20 -30 2 -15 -13 -53 -22 -53 -5 0 -9 -7 -9 -15 0 -8 -5 -15
-11 -15 -6 0 -9 -6 -6 -14 3 -8 3 -16 -1 -18 -20 -9 -64 -133 -67 -188 -2 -19
-6 -43 -10 -52 -10 -26 21 -35 45 -13 25 23 48 125 28 125 -4 0 -8 5 -8 11 0
5 4 8 9 5 5 -3 11 1 15 9 3 8 12 15 20 15 14 0 21 14 30 61 6 30 26 69 35 69
5 0 8 9 6 19 -2 11 3 22 11 25 8 3 14 10 14 16 0 6 7 19 16 27 9 10 14 27 12
44 -3 21 1 30 20 38 14 7 22 17 19 25 -3 7 0 19 6 25 9 9 8 14 -3 21 -10 6
-11 10 -3 10 7 0 24 19 39 41 20 33 23 43 13 50 -11 6 -9 13 9 32 23 24 30 43
12 32 -12 -8 -13 8 -1 21 5 5 11 30 13 57 2 37 0 47 -12 47 -11 1 -9 4 5 12
25 14 70 58 60 58 -5 0 2 9 14 19 12 11 23 21 23 23 3 10 -25 48 -35 48 -7 0
-37 -27 -68 -60z m-39 -334 c0 -2 -7 -6 -15 -10 -8 -3 -15 -1 -15 4 0 6 7 10
15 10 8 0 15 -2 15 -4z m-54 -113 c-10 -10 -19 5 -10 18 6 11 8 11 12 0 2 -7
1 -15 -2 -18z m-31 -72 c-3 -6 -11 -11 -17 -11 -6 0 -6 6 2 15 14 17 26 13 15
-4z m-100 -141 c3 -5 1 -10 -4 -10 -6 0 -11 5 -11 10 0 6 2 10 4 10 3 0 8 -4
11 -10z m-39 -87 c-10 -10 -19 5 -10 18 6 11 8 11 12 0 2 -7 1 -15 -2 -18z"/>
<path d="M7894 4515 c-3 -8 -3 -18 0 -24 3 -5 0 -11 -6 -14 -7 -2 -10 -7 -7
-11 4 -4 14 1 24 10 12 13 16 13 15 3 -5 -33 1 -36 61 -34 33 1 65 7 72 14 6
6 16 11 22 11 5 0 4 -4 -4 -9 -21 -14 -4 -30 27 -25 46 8 115 10 144 4 l27 -5
-38 -40 c-41 -43 -115 -105 -127 -105 -8 0 -60 -55 -88 -93 -11 -14 -23 -24
-28 -21 -4 3 -8 1 -8 -4 0 -5 -16 -20 -35 -33 -19 -13 -35 -30 -35 -37 0 -7
-7 -15 -15 -18 -16 -7 -20 -60 -7 -81 11 -17 102 -25 119 -11 7 6 13 7 13 4 0
-4 7 0 16 8 8 9 19 14 24 11 5 -3 10 1 13 7 2 7 8 10 12 6 5 -5 1 -16 -9 -27
-16 -18 -16 -19 13 -23 39 -6 53 3 45 28 -5 16 -4 16 5 4 6 -8 11 -11 11 -6 0
4 11 1 25 -8 27 -18 60 -22 50 -5 -4 6 -13 8 -20 5 -9 -3 -13 2 -12 13 1 19
27 18 27 -1 0 -6 7 -8 14 -5 10 4 13 1 9 -9 -5 -12 -1 -13 22 -2 22 10 28 9
36 -3 5 -8 9 -9 9 -3 0 6 11 16 25 22 20 9 26 8 34 -6 10 -16 10 -16 11 1 0
43 -18 56 -78 56 -31 0 -107 1 -169 1 -61 1 -125 -1 -142 -5 -17 -4 -31 -2
-31 3 0 11 105 119 122 124 7 3 12 16 11 30 -2 24 3 28 47 39 28 7 50 18 50
23 0 6 25 31 55 55 30 24 62 55 71 69 21 32 23 100 3 112 -8 6 -15 6 -17 0 -2
-6 -11 -6 -20 -2 -9 4 -92 7 -184 7 -93 -1 -168 2 -168 7 0 14 -30 9 -36 -7z"/>
<path d="M3983 4503 c-23 -8 -14 -29 20 -44 25 -11 31 -19 29 -38 -1 -13 3
-30 9 -37 9 -11 8 -14 -2 -14 -11 0 -11 -2 1 -10 12 -7 12 -12 2 -22 -6 -6
-12 -20 -12 -29 0 -9 -7 -19 -15 -23 -8 -3 -15 -17 -15 -30 0 -35 -20 -76 -37
-76 -8 0 -12 -4 -8 -9 3 -5 -3 -12 -12 -15 -21 -7 -49 -46 -33 -46 5 0 10 -6
10 -13 0 -8 -7 -14 -15 -14 -8 0 -12 4 -9 9 3 4 1 8 -5 8 -15 0 -23 -18 -24
-57 -1 -25 -8 -40 -23 -50 -17 -10 -21 -21 -18 -42 4 -23 -3 -36 -35 -66 -22
-21 -45 -51 -52 -66 -6 -16 -15 -26 -20 -23 -14 8 -11 -12 4 -24 12 -10 51
-20 107 -26 14 -2 60 0 103 5 86 8 118 27 212 124 50 51 165 215 165 235 0 21
46 80 63 80 9 0 16 3 15 8 -4 12 47 63 65 66 9 1 25 12 35 24 14 16 22 18 30
10 8 -8 12 -8 12 -1 0 8 35 11 61 5 18 -5 34 -162 16 -162 -4 0 -4 -8 1 -17 5
-10 8 -37 7 -61 -1 -23 2 -45 7 -48 4 -3 5 -10 2 -16 -4 -6 -7 -31 -7 -55 0
-41 -3 -46 -59 -93 -33 -28 -64 -50 -69 -50 -5 0 -9 -5 -9 -12 0 -6 -7 -19
-16 -29 -15 -17 -15 -18 9 -24 16 -4 24 -12 21 -20 -4 -10 1 -12 17 -8 14 4
20 2 15 -5 -8 -14 12 -27 44 -28 104 -6 129 -6 141 1 7 5 23 9 34 9 30 1 90
46 109 81 9 16 16 44 16 60 0 17 1 108 3 204 2 157 0 175 -15 185 -10 6 -18
14 -18 19 0 4 4 6 9 2 5 -3 12 3 16 14 10 34 35 45 103 47 141 6 197 13 201
26 2 7 10 17 17 21 45 26 -11 29 -206 12 -19 -2 -37 -4 -40 -5 -3 -1 -8 -2
-12 -1 -5 0 -8 -4 -8 -9 0 -6 -11 -10 -25 -10 -15 0 -39 -14 -60 -34 -36 -35
-44 -59 -23 -72 7 -5 5 -11 -8 -21 -17 -13 -17 -15 -3 -23 12 -7 17 -25 18
-62 0 -28 5 -56 11 -62 6 -6 4 -13 -7 -21 -13 -10 -13 -15 -3 -32 8 -12 10
-28 5 -39 -13 -31 -16 -77 -5 -84 6 -4 6 -19 -1 -43 -5 -21 -8 -41 -5 -45 2
-4 -4 -19 -14 -32 -18 -24 -24 -25 -113 -24 -88 0 -157 16 -157 35 0 4 17 20
38 36 87 64 103 93 103 185 0 40 1 89 2 108 1 19 -1 47 -4 61 -4 14 -3 32 1
40 7 13 -1 95 -13 144 -3 11 -6 23 -6 27 -1 9 -64 7 -77 -3 -6 -5 -20 -7 -32
-4 -12 2 -22 0 -22 -6 0 -5 -9 -9 -19 -9 -11 0 -23 -4 -26 -10 -3 -5 -12 -10
-18 -10 -7 1 -1 9 12 20 18 16 20 21 8 25 -42 17 -107 -19 -107 -59 0 -13 -12
-28 -29 -37 -17 -10 -30 -28 -34 -45 -3 -16 -18 -41 -32 -57 -14 -15 -28 -37
-31 -50 -2 -12 -12 -33 -22 -47 -11 -14 -22 -35 -26 -48 -4 -12 -12 -22 -17
-22 -5 0 -14 -11 -19 -25 -5 -14 -33 -51 -62 -81 -29 -30 -52 -60 -50 -65 1
-5 -7 -9 -18 -9 -11 0 -20 -4 -20 -10 0 -26 -126 -49 -183 -33 l-28 8 50 70
c35 48 49 75 45 88 -4 13 -2 17 5 13 6 -4 11 -1 11 6 0 19 43 102 58 111 6 4
12 14 12 21 0 7 16 31 35 53 19 23 35 48 35 57 0 9 5 16 12 16 6 0 8 3 5 7 -4
3 -1 16 7 28 30 46 55 195 33 195 -6 0 -20 9 -31 19 -21 19 -70 32 -93 24z"/>
<path d="M11576 4454 c-27 -7 -52 -16 -57 -21 -13 -13 -23 -67 -12 -60 6 4 11
-4 11 -18 0 -24 -1 -24 -15 -8 -13 16 -13 16 -3 -5 20 -41 20 -61 -1 -72 -10
-6 -19 -17 -19 -25 0 -8 -7 -18 -16 -23 -9 -5 -16 -20 -16 -33 0 -29 27 -95
43 -105 8 -4 7 -9 -2 -15 -12 -8 -12 -10 0 -18 8 -5 11 -16 6 -30 -4 -13 -2
-21 5 -21 6 0 8 5 5 10 -3 6 -1 10 4 10 6 0 12 -6 12 -12 1 -7 2 -20 3 -28 0
-8 9 -14 19 -14 11 1 16 -4 15 -14 -3 -15 11 -25 94 -63 17 -7 51 -10 91 -7
86 7 131 37 153 101 18 53 27 114 26 165 0 18 4 32 11 32 7 0 6 4 -2 9 -10 7
-12 14 -5 23 18 24 -4 148 -27 148 -5 0 -8 5 -6 12 1 6 -7 14 -18 16 -11 2
-24 11 -30 19 -6 8 -18 15 -27 16 -9 2 -23 8 -31 15 -8 7 -19 12 -23 11 -5 -1
-27 1 -49 5 -76 13 -90 13 -139 0z m154 -56 c0 -5 4 -7 9 -4 5 3 20 -3 34 -14
14 -11 30 -20 36 -20 5 0 16 -9 24 -20 8 -11 17 -17 22 -12 5 4 5 1 1 -6 -5
-8 -1 -21 10 -33 11 -13 13 -19 4 -19 -9 0 -8 -6 4 -24 10 -17 12 -27 5 -31
-6 -4 -8 -13 -5 -21 3 -8 2 -13 -2 -13 -19 3 -25 -2 -12 -11 11 -7 11 -10 2
-10 -7 0 -11 -4 -8 -8 3 -5 1 -33 -4 -63 -18 -96 -18 -104 -8 -116 7 -9 -4
-18 -39 -34 -47 -22 -49 -22 -111 -6 -35 10 -68 14 -73 11 -5 -3 -9 6 -9 20 0
14 -4 26 -10 26 -5 0 -25 34 -45 77 -40 86 -41 122 -5 171 22 29 23 35 11 67
-9 26 -9 39 -1 56 10 17 9 20 0 14 -8 -5 -5 5 4 21 l18 30 74 -10 c41 -5 74
-13 74 -18z"/>
<path d="M9682 4434 c-12 -8 -22 -13 -22 -9 0 3 -17 -2 -37 -10 -20 -9 -43
-13 -50 -11 -7 3 -13 1 -13 -3 0 -5 -16 -10 -35 -10 -59 -3 -64 -4 -69 -18 -3
-7 -13 -13 -22 -13 -22 0 -111 -76 -119 -101 -10 -29 16 -77 45 -84 13 -4 27
-11 31 -16 3 -6 15 -6 32 0 20 8 27 7 27 -1 0 -6 3 -8 6 -5 4 3 15 2 25 -4 15
-8 17 -6 12 8 -5 12 -2 15 10 10 10 -4 17 -2 17 5 0 7 6 3 14 -7 9 -12 19 -16
31 -11 11 4 22 2 26 -5 4 -7 34 -12 73 -12 36 0 66 -3 66 -8 0 -4 14 -5 31 -2
19 3 29 1 25 -5 -7 -11 16 -22 45 -22 66 0 -43 -70 -139 -89 -30 -6 -61 -15
-70 -20 -20 -11 -186 -22 -334 -24 -60 0 -108 -2 -108 -4 0 -3 18 -33 36 -61
1 -2 18 1 38 6 26 8 38 7 46 -3 7 -9 26 -11 58 -8 45 5 66 18 56 35 -3 4 -1 8
5 8 5 0 13 -4 16 -10 3 -5 1 -10 -4 -10 -6 0 -11 -4 -11 -10 0 -5 14 -10 31
-10 24 0 30 3 25 16 -4 10 -2 14 6 11 7 -2 29 2 47 10 37 14 61 11 61 -8 0 -6
-7 -8 -16 -5 -8 3 -12 2 -9 -4 9 -15 26 -12 48 8 11 9 17 11 13 5 -14 -24 25
-13 50 14 17 18 23 21 18 8 -5 -12 -4 -16 3 -12 6 4 13 3 15 -3 4 -12 58 10
58 23 0 4 8 7 18 8 10 0 12 3 4 6 -6 2 -9 9 -6 14 3 6 11 5 20 -2 11 -9 18 -9
26 -1 7 7 20 12 30 12 38 0 47 105 12 140 -16 17 -104 49 -149 55 -125 17
-236 28 -330 35 -17 1 -24 4 -15 7 8 4 23 17 33 30 10 12 27 23 38 23 10 0 19
5 19 10 0 6 8 10 18 11 15 0 15 1 -2 8 -16 6 -17 8 -4 13 9 4 20 2 26 -4 7 -7
17 -6 31 2 12 6 27 8 33 4 6 -4 17 1 25 11 12 17 13 17 13 2 0 -16 3 -16 28
-4 15 8 43 17 64 21 35 6 57 29 38 41 -5 3 -7 14 -5 25 5 25 -21 27 -53 4z
m-202 -264 c0 -5 -2 -10 -4 -10 -3 0 -8 5 -11 10 -3 6 -1 10 4 10 6 0 11 -4
11 -10z"/>
<path d="M7460 4290 c0 -5 5 -10 11 -10 5 0 7 5 4 10 -3 6 -8 10 -11 10 -2 0
-4 -4 -4 -10z"/>
<path d="M9110 4239 c0 -5 5 -7 10 -4 6 3 10 8 10 11 0 2 -4 4 -10 4 -5 0 -10
-5 -10 -11z"/>
</g>
</svg>
